<svg width="42" height="42" viewBox="0 0 42 42" fill="none" xmlns="http://www.w3.org/2000/svg">
<path d="M35.2829 0.859375H6.8838C3.63944 0.859375 1 3.49174 1 6.7274V35.0504C1 38.2861 3.63944 40.9185 6.8838 40.9185H35.2829C38.5273 40.9185 41.1667 38.2861 41.1667 35.0504V6.7274C41.1667 3.49174 38.5273 0.859375 35.2829 0.859375ZM38.8132 35.0504C38.8132 36.9918 37.2295 38.5712 35.2829 38.5712H6.8838C4.93724 38.5712 3.35352 36.9918 3.35352 35.0504V6.7274C3.35352 4.78606 4.93724 3.20659 6.8838 3.20659H35.2829C37.2295 3.20659 38.8132 4.78606 38.8132 6.7274V35.0504Z" fill="#070707" stroke="#070707" stroke-width="0.5"/>
<path d="M27.333 16.2266C28.2258 16.2526 29.0725 16.4539 29.8349 16.9336C30.812 17.5486 31.4076 18.4486 31.7568 19.5293C32.0291 20.3718 32.1191 21.2419 32.1201 22.123C32.1222 24.6615 32.1204 27.2007 32.1201 29.7393C32.12 29.784 32.1163 29.8283 32.1132 29.8799H27.832V22.6934C27.832 22.1959 27.795 21.7039 27.6699 21.2178C27.4105 20.2121 26.7197 19.7378 25.9824 19.6348C25.2465 19.532 24.464 19.799 24.0175 20.2764C23.5708 20.7543 23.277 21.2961 23.2646 21.9658C23.2618 22.1227 23.2529 22.2825 23.2529 22.4404C23.252 24.8563 23.2519 27.2726 23.2519 29.6885V29.8789H18.9794V16.5449H23.2499V18.332L23.2597 18.3359C23.2705 18.3406 23.2824 18.3467 23.2939 18.3516L23.3046 18.3555L23.3124 18.3457C23.3428 18.3045 23.3749 18.2635 23.4052 18.2217C23.8356 17.6238 24.329 17.0947 24.9843 16.7373C25.7165 16.3377 26.5085 16.2027 27.333 16.2266Z" fill="#070707" stroke="#070707" stroke-width="0.0306072"/>
<path d="M16.3191 16.541V29.8877H12.0691V16.541H16.3191Z" fill="#070707" stroke="#070707" stroke-width="0.0306072"/>
<path d="M14.377 9.88867C15.0471 9.88776 15.6191 10.1249 16.0234 10.5312C16.4277 10.9376 16.6656 11.5138 16.668 12.1904C16.6701 12.8599 16.4306 13.4314 16.0205 13.835C15.6105 14.2384 15.0288 14.4752 14.3457 14.4756C13.0133 14.4765 12.064 13.5245 12.0615 12.1855C12.0591 10.8459 13.0216 9.8906 14.377 9.88867Z" fill="#070707" stroke="#070707" stroke-width="0.0306072"/>
</svg>
